HIERARCHY
ROOT Hips
{
    OFFSET 0.000000 0.000000 0.000000
    CHANNELS 6 Xposition Yposition Zposition Zrotation Xrotation Yrotation
    JOINT Spine
    {
        OFFSET -0.000000 14.517291 0.000000
        CHANNELS 3 Zrotation Xrotation Yrotation
        JOINT Spine1
        {
            OFFSET -0.000000 37.558300 0.000000
            CHANNELS 3 Zrotation Xrotation Yrotation
            JOINT Neck
            {
                OFFSET -0.000000 37.404057 3.400369
                CHANNELS 3 Zrotation Xrotation Yrotation
                JOINT Head
                {
                    OFFSET -0.000000 24.785618 -3.540803
                    CHANNELS 3 Zrotation Xrotation Yrotation
                    End Site
                    {
                        OFFSET -0.000000 35.408028 0.000000
                    }
                }
            }
            JOINT LeftShoulder
            {
                OFFSET 6.992933 33.973492 -0.192664
                CHANNELS 3 Zrotation Xrotation Yrotation
                JOINT LeftArm
                {
                    OFFSET 21.527611 0.000000 0.000000
                    CHANNELS 3 Zrotation Xrotation Yrotation
                    JOINT LeftForeArm
                    {
                        OFFSET 56.353916 0.000000 0.000000
                        CHANNELS 3 Zrotation Xrotation Yrotation
                        JOINT LeftHand
                        {
                            OFFSET 47.774071 0.000000 0.000000
                            CHANNELS 3 Zrotation Xrotation Yrotation
                            End Site
                            {
                                OFFSET 26.556021 0.000000 0.000000
                            }
                        }
                    }
                }
            }
            JOINT RightShoulder
            {
                OFFSET -7.065357 33.973492 -0.192664
                CHANNELS 3 Zrotation Xrotation Yrotation
                JOINT RightArm
                {
                    OFFSET -21.527611 0.000000 0.000000
                    CHANNELS 3 Zrotation Xrotation Yrotation
                    JOINT RightForeArm
                    {
                        OFFSET -56.353916 0.000000 0.000000
                        CHANNELS 3 Zrotation Xrotation Yrotation
                        JOINT RightHand
                        {
                            OFFSET -47.774071 0.000000 0.000000
                            CHANNELS 3 Zrotation Xrotation Yrotation
                            End Site
                            {
                                OFFSET -26.556021 0.000000 0.000000
                            }
                        }
                    }
                }
            }
        }
    }
    JOINT LeftUpLeg
    {
        OFFSET 17.704014 0.000000 0.000000
        CHANNELS 3 Zrotation Xrotation Yrotation
        JOINT LeftLeg
        {
            OFFSET -0.000000 -81.181816 0.000000
            CHANNELS 3 Zrotation Xrotation Yrotation
            JOINT LeftFoot
            {
                OFFSET -0.000000 -62.821102 0.000000
                CHANNELS 3 Zrotation Xrotation Yrotation
                JOINT LeftToeBase
                {
                    OFFSET -0.000000 -11.507608 26.556021
                    CHANNELS 3 Zrotation Xrotation Yrotation
                    End Site
                    {
                        OFFSET -0.000000 0.000000 7.081605
                    }
                }
            }
        }
    }
    JOINT RightUpLeg
    {
        OFFSET -17.704014 0.000000 0.000000
        CHANNELS 3 Zrotation Xrotation Yrotation
        JOINT RightLeg
        {
            OFFSET -0.000000 -81.181816 0.000000
            CHANNELS 3 Zrotation Xrotation Yrotation
            JOINT RightFoot
            {
                OFFSET -0.000000 -62.821102 0.000000
                CHANNELS 3 Zrotation Xrotation Yrotation
                JOINT RightToeBase
                {
                    OFFSET -0.000000 -11.507608 26.556021
                    CHANNELS 3 Zrotation Xrotation Yrotation
                    End Site
                    {
                        OFFSET -0.000000 0.000000 7.081605
                    }
                }
            }
        }
    }
}
MOTION
Frames:    11
Frame Time:    0.008333
-28.246510    174.107819    -17.229675    -12.508314    -31.043692    52.053658    11.347118    7.526751    15.675935    2.809267    -7.394856    5.654138    21.145000    12.535949    -5.098105    -1.117912    -15.770237    -6.355652    11.727565    0.278819    -3.872388    -51.671120    13.714183    -46.464764    -16.511381    10.248348    -121.089645    4.087075    -19.606733    -5.277739    5.662457    11.425983    -0.982826    25.320827    15.708580    13.083522    -35.817177    -19.642229    30.784611    -12.610498    -12.485288    24.662235    36.488998    -1.639949    -1.872096    -3.333543    24.687449    -20.913912    0.486701    -9.237030    29.962042    0.000000    0.000000    0.000000    -78.331024    -38.047100    -43.425293    11.355855    25.361887    -3.996307    11.994239    10.029355    -20.699867    0.000000    0.000000    0.000000    
-28.298586    174.084641    -17.246897    -12.559552    -31.009802    51.943279    11.278952    7.382740    15.635235    2.869690    -7.222983    5.634150    21.095409    12.642560    -5.088568    -1.007949    -15.955761    -6.294078    11.741509    0.265280    -3.965842    -51.597717    13.622374    -46.456932    -16.415663    9.993833    -121.109879    4.041626    -19.686466    -5.288002    5.651424    11.366060    -0.874142    25.317177    15.749647    13.075889    -35.901104    -19.728714    30.645031    -12.603718    -12.586130    24.573782    36.486122    -1.659781    -1.884852    -3.359163    24.712774    -20.892664    0.499465    -9.253881    30.042503    0.000000    0.000000    0.000000    -78.331734    -38.100296    -43.419563    11.356182    25.272999    -4.017815    11.979582    10.071119    -20.890482    0.000000    0.000000    0.000000    
-28.347075    174.060577    -17.266005    -12.611981    -30.967104    51.831024    11.172481    7.355062    15.619973    2.920743    -7.218287    5.628923    21.095469    12.634960    -5.085264    -0.947627    -15.997166    -6.275767    11.754321    0.270802    -4.029431    -51.515949    13.609040    -46.473312    -16.310936    9.735749    -121.158180    3.982138    -19.769064    -5.304871    5.678027    11.316480    -0.866318    25.302307    15.619073    13.084359    -35.802826    -19.710407    30.703197    -12.605721    -12.572234    24.532021    36.474346    -1.680591    -1.868083    -3.370919    24.737314    -20.857931    0.533112    -9.258871    30.082857    0.000000    0.000000    0.000000    -78.344193    -38.160679    -43.453278    11.343860    25.192177    -4.020807    11.991574    10.098831    -21.079092    0.000000    0.000000    0.000000    
-28.394526    174.034531    -17.287481    -12.665183    -30.922056    51.724216    11.065696    7.335610    15.584971    2.976350    -7.220350    5.617804    21.075272    12.595212    -5.075886    -0.865102    -15.988863    -6.250242    11.755922    0.263089    -4.073300    -51.440189    13.605048    -46.483475    -16.199062    9.490339    -121.221191    3.958634    -19.835951    -5.295955    5.692731    11.255645    -0.858094    25.302431    15.713120    13.096413    -35.870693    -19.832067    30.638546    -12.573079    -12.692158    24.521816    36.465046    -1.706005    -1.844534    -3.392248    24.757837    -20.815489    0.548364    -9.270834    30.119192    0.000000    0.000000    0.000000    -78.354736    -38.219135    -43.499115    11.301057    25.116791    -4.054326    12.022058    10.138161    -21.188829    0.000000    0.000000    0.000000    
-28.429758    174.012070    -17.306679    -12.706227    -30.888952    51.633369    10.999761    7.319260    15.532422    2.968410    -7.210187    5.597558    21.117083    12.596809    -5.078489    -0.818066    -16.022875    -6.241299    11.801894    0.273166    -4.091571    -51.352913    13.619441    -46.546459    -16.085527    9.205672    -121.257561    3.889589    -19.919752    -5.316645    5.740175    11.215730    -0.836010    25.297775    16.078682    13.128582    -36.184841    -20.091562    30.344679    -12.501818    -12.946255    24.453075    36.455235    -1.715944    -1.811252    -3.393379    24.769068    -20.792175    0.586151    -9.269224    30.126999    0.000000    0.000000    0.000000    -78.348640    -38.258366    -43.544884    11.255701    25.047358    -4.063601    12.093227    10.140414    -21.291470    0.000000    0.000000    0.000000    
-28.468891    173.984146    -17.329155    -12.757850    -30.846792    51.535519    10.935608    7.295063    15.485275    2.977817    -7.204323    5.580123    21.075823    12.600060    -5.091328    -0.675506    -16.048458    -6.213164    11.810678    0.270962    -4.137402    -51.266697    13.615513    -46.573959    -15.984241    8.947740    -121.296623    3.842527    -20.002718    -5.337233    5.767545    11.166350    -0.823971    25.312670    15.983616    13.135790    -36.085159    -20.126030    30.449837    -12.395276    -12.952749    24.455338    36.441593    -1.743327    -1.727218    -3.376231    24.791243    -20.788834    0.599936    -9.279203    30.138475    0.000000    0.000000    0.000000    -78.352783    -38.311504    -43.615700    11.194886    24.979727    -4.073241    12.133207    10.157019    -21.342585    0.000000    0.000000    0.000000    
-28.500307    173.957306    -17.352114    -12.800693    -30.815845    51.444878    10.877305    7.274965    15.434659    3.021028    -7.185303    5.563531    21.016869    12.562616    -5.095958    -0.578462    -16.023445    -6.196210    11.773937    0.283208    -4.180066    -51.178833    13.561500    -46.613422    -15.925537    8.773099    -121.320015    3.860467    -20.076302    -5.336337    5.738655    11.132201    -0.818649    25.358507    15.885391    13.158162    -35.973949    -20.246546    30.618935    -12.344745    -13.025831    24.308704    36.430714    -1.754317    -1.644574    -3.359901    24.805559    -20.797836    0.648235    -9.282336    30.147701    0.000000    0.000000    0.000000    -78.342041    -38.355186    -43.670090    11.149353    24.904078    -4.084519    12.194335    10.155476    -21.414850    0.000000    0.000000    0.000000    
-28.532835    173.925705    -17.374813    -12.843114    -30.781763    51.355732    10.824984    7.263051    15.389076    3.049893    -7.176652    5.548364    20.924540    12.513169    -5.114195    -0.421476    -15.975481    -6.177902    11.745150    0.289340    -4.218702    -51.100044    13.553530    -46.684788    -15.878155    8.579638    -121.292465    3.881817    -20.159506    -5.350379    5.721244    11.086800    -0.843115    25.397558    15.863894    13.199614    -35.917015    -20.377209    30.749027    -12.276958    -13.103556    24.162552    36.418842    -1.771377    -1.561438    -3.348519    24.827358    -20.792931    0.677793    -9.304506    30.153425    0.000000    0.000000    0.000000    -78.344231    -38.408035    -43.726933    11.100077    24.842590    -4.105943    12.238777    10.151444    -21.465471    0.000000    0.000000    0.000000    
-28.555605    173.897736    -17.399132    -12.862735    -30.756409    51.276848    10.797612    7.293538    15.328315    3.014320    -7.195050    5.526665    20.930485    12.456001    -5.129508    -0.361298    -15.897135    -6.188406    11.768635    0.312662    -4.227572    -51.067223    13.531152    -46.753353    -15.840618    8.448380    -121.283699    3.880080    -20.211712    -5.385560    5.752405    11.022396    -0.838948    25.416592    15.798106    13.211466    -35.794689    -20.436144    30.887291    -12.171105    -13.134773    24.190081    36.392605    -1.762007    -1.476756    -3.319746    24.839958    -20.822744    0.711750    -9.322300    30.178497    0.000000    0.000000    0.000000    -78.323845    -38.457451    -43.765877    11.042408    24.765209    -4.121807    12.254319    10.154942    -21.518471    0.000000    0.000000    0.000000    
-28.582626    173.868210    -17.427925    -12.893034    -30.715706    51.193859    10.760401    7.300887    15.280866    2.994531    -7.202786    5.509174    20.933058    12.405407    -5.150976    -0.308083    -15.832481    -6.205933    11.767113    0.329749    -4.267501    -51.015923    13.524878    -46.813446    -15.797094    8.291797    -121.288567    3.877723    -20.283754    -5.375232    5.776678    10.959224    -0.873650    25.427895    15.721579    13.237810    -35.655834    -20.471615    31.097233    -12.163704    -13.137388    24.164341    36.354805    -1.777171    -1.375237    -3.280893    24.871569    -20.834303    0.753641    -9.333816    30.167545    0.000000    0.000000    0.000000    -78.330940    -38.509861    -43.813896    11.000336    24.682388    -4.158859    12.241120    10.163177    -21.516483    0.000000    0.000000    0.000000    
-28.601000    173.845078    -17.454586    -12.913567    -30.689766    51.129051    10.754086    7.327458    15.221981    2.940607    -7.214809    5.487095    20.979797    12.350303    -5.170513    -0.309236    -15.760281    -6.238990    11.779475    0.370112    -4.318437    -50.987194    13.483847    -46.889648    -15.786987    8.186728    -121.274185    3.909645    -20.357170    -5.343542    5.813838    10.907183    -0.916405    25.450365    15.599380    13.261441    -35.503021    -20.471069    31.347900    -12.131515    -13.090611    24.159267    36.320679    -1.787721    -1.312378    -3.252651    24.903358    -20.846186    0.817995    -9.333309    30.179094    0.000000    0.000000    0.000000    -78.310509    -38.541492    -43.833748    10.967979    24.588873    -4.202952    12.189795    10.147530    -21.514072    0.000000    0.000000    0.000000    
